<svg width="64" height="38" viewBox="0 0 64 38" fill="none" xmlns="http://www.w3.org/2000/svg">
<path fill-rule="evenodd" clip-rule="evenodd" d="M7.62467 0.086663C6.81251 0.244063 5.19082 1.28478 4.03912 2.38768C3.47213 2.93062 2.51663 4.20294 2.21844 4.81204C1.6966 5.87775 0.702555 9.1928 0.338621 11.0809C0.284658 11.3605 0.205534 11.7491 0.162669 11.9444C0.0461864 12.4759 0.0657554 12.7921 0.218835 12.8509C0.292536 12.8792 1.87458 12.9023 3.73449 12.9023H7.11612V19.2944V25.6866L5.36948 28.6766C4.40882 30.321 3.51567 31.8572 3.38462 32.0901C3.25365 32.3231 2.45792 33.6955 1.61646 35.1399L0.0864258 37.766L11.8398 37.7878C18.3041 37.7997 23.6408 37.7914 23.699 37.7692C23.8462 37.7132 23.8544 29.1234 23.7074 29.0324C23.6537 28.9993 23.2153 28.9759 22.7332 28.9805C22.2349 28.9852 21.8565 28.9542 21.8565 28.9088C21.8565 28.865 22.3779 27.9998 23.0152 26.9862C23.6525 25.9728 24.7253 24.2667 25.3993 23.1951C26.0732 22.1235 26.705 21.1132 26.8032 20.9502L26.9817 20.6537L27.0033 29.231L27.0249 37.8084H35.03H43.0351V19.051C43.0351 8.73449 43.0582 0.233389 43.0865 0.159687C43.1332 0.0381216 42.4768 0.0256685 36.0311 0.0256685H28.9244L27.7042 1.95292C27.0331 3.01287 26.1054 4.47106 25.6427 5.19326C25.1799 5.91545 24.6791 6.69694 24.5299 6.9299C24.3806 7.16287 24.099 7.60127 23.904 7.90412L23.5496 8.45477L24.8291 8.47823C25.8173 8.49628 26.0992 8.52601 26.0675 8.60861C26.045 8.6674 25.6533 9.26684 25.1971 9.94058C24.5169 10.9453 23.6621 12.2187 23.2089 12.9023C23.1626 12.9722 22.625 13.7727 22.0142 14.6813C21.4035 15.5898 19.8176 17.9534 18.4901 19.9336C17.1625 21.9138 16.0616 23.5498 16.0438 23.5693C16.0258 23.5887 16.0112 23.5495 16.0112 23.4821C16.0112 23.4147 16.6441 22.3505 17.4178 21.1171C20.3062 16.5126 21.0354 15.2291 21.8311 13.3498L22.1462 12.6058L22.1789 10.7717C22.2082 9.13367 22.1929 8.86207 22.0366 8.23027C21.7072 6.89992 20.3341 4.51944 19.0052 2.97518C18.1895 2.02722 16.5417 0.426114 16.178 0.228136C15.9024 0.0780221 15.6335 0.0673481 11.8601 0.0568435C9.64697 0.0506593 7.74106 0.0641289 7.62467 0.086663ZM44.3058 4.15093V8.30177L45.3012 8.39733C47.956 8.65207 50.1202 9.64729 51.9326 11.4467C53.9751 13.4747 55.0646 16.0994 55.0646 18.9924C55.0646 22.925 52.89 26.5069 49.3887 28.3418C48.0307 29.0534 46.747 29.4148 45.3436 29.4806L44.3058 29.5292V33.7111V37.8931L44.7506 37.8911C47.343 37.8799 49.9725 37.2853 52.5231 36.1335C52.6862 36.0599 52.8306 35.9921 52.8441 35.9829C52.8576 35.9738 52.5021 35.2315 52.0542 34.3335C51.2613 32.7437 51.2078 32.5641 51.5248 32.5573C51.654 32.5546 53.1486 31.6029 53.7801 31.1212C54.1457 30.8423 54.8607 30.1977 55.3689 29.6886L56.2929 28.7631L57.6907 29.8907L59.0885 31.0182L59.326 30.7494C59.5199 30.53 60.2969 29.4098 60.8059 28.6156C60.8653 28.5231 61.1787 27.9165 61.5023 27.2677C62.0865 26.0963 62.943 23.7041 62.943 23.2434C62.943 22.9898 63.0403 23.0258 61.2064 22.6011C59.3818 22.1786 59.4557 22.2041 59.5018 22.013C59.5248 21.9177 59.6069 21.3711 59.6841 20.7984C59.84 19.6438 59.8227 17.9999 59.6406 16.6467C59.5822 16.2135 59.5514 15.8421 59.5721 15.8215C59.5927 15.8008 60.0778 15.6885 60.65 15.572C61.2223 15.4554 61.9929 15.2772 62.3627 15.1758L63.0349 14.9916L62.9825 14.7305C62.6095 12.8731 61.4604 10.2496 60.2152 8.41241C59.2911 7.04918 59.2528 7.0081 59.0222 7.13297C58.8747 7.21268 57.5589 8.2307 56.6705 8.9523C56.3499 9.21271 56.3255 9.20068 55.5438 8.39606C54.404 7.22293 53.0151 6.14579 51.9028 5.5721C51.3278 5.2756 51.297 5.43351 52.3728 3.16011C52.8534 2.14446 52.8923 2.01866 52.758 1.91413C52.6698 1.84551 51.8436 1.48691 50.9559 1.13187C50.4358 0.923897 49.2577 0.593849 48.4145 0.419761C47.1862 0.166295 46.7716 0.113772 45.5554 0.0576059L44.3058 0V4.15093ZM15.5238 12.9932L15.5452 25.3677L23.7935 12.9932L32.0418 0.61867H37.2843H42.5268V18.917V37.2154H37.1474H31.7681V24.6571V12.0989L31.4398 12.6065C31.1113 13.1144 29.93 14.9863 28.0061 18.0481C27.4426 18.9447 26.753 20.0411 26.4734 20.4844C24.2271 24.0469 22.6723 26.5167 21.7002 28.0662C21.0717 29.0679 20.075 30.65 19.4852 31.5818C18.8954 32.5137 17.8439 34.1814 17.1485 35.2878L15.8841 37.2996L11.7754 37.2786L7.66677 37.2577L7.64542 18.9382L7.62399 0.61867H11.5631H15.5023L15.5238 12.9932ZM44.3979 12.2927C44.3327 12.3144 44.3058 14.2457 44.3058 18.924V25.5248L44.5811 25.5241C45.432 25.5221 46.61 25.2105 47.5032 24.7512C49.0942 23.933 50.1991 22.6439 50.7976 20.9078C51.0145 20.2782 51.0311 20.1339 51.0311 18.8747C51.0311 17.6161 51.0144 17.4708 50.7978 16.8415C49.9145 14.2754 47.7497 12.5422 45.1487 12.3186C44.7864 12.2874 44.4486 12.2758 44.3979 12.2927Z" fill="white"/>
</svg>
